<svg xmlns="http://www.w3.org/2000/svg" width="54" height="51" viewBox="0 0 54 51">
    <path fill="#AFAFAF" fill-rule="evenodd" d="M21.242 33.805c3.96 0 7.553-1.505 10.179-3.947.003 0 .005-.012.008-.012.006 0 .015-.01.02-.01 2.677-2.5 4.34-5.972 4.34-9.795 0-7.6-6.526-13.774-14.547-13.774-8.02 0-14.547 6.175-14.547 13.774 0 7.589 6.526 13.764 14.547 13.764zM42.19 20.038c0 4.809-.903 8.62-3.925 12.057l14.841 12.419c.238.227.459.872.462 1.399.004.526-.21.933-.462 1.47-.352.75-1.026 1.723-1.36 2.04-.404.38-1.857 1.324-2.387 1.324s-.963.016-1.594-.248L33.418 36.545c-3.599 2.758-7.2 3.317-12.18 3.317a21.9 21.9 0 0 1-7.357-1.261C5.946 35.775.286 28.516.286 20.038.286 9.1 9.685.2 21.238.2 32.79.2 42.19 9.1 42.19 20.038z"/>
</svg>
